<?xml version="1.0" encoding="utf-8"?>
<!-- Generator: Adobe Illustrator 17.1.0, SVG Export Plug-In . SVG Version: 6.00 Build 0)  -->
<!DOCTYPE svg PUBLIC "-//W3C//DTD SVG 1.1//EN" "http://www.w3.org/Graphics/SVG/1.1/DTD/svg11.dtd" [
	<!ENTITY ns_extend "http://ns.adobe.com/Extensibility/1.0/">
	<!ENTITY ns_ai "http://ns.adobe.com/AdobeIllustrator/10.0/">
	<!ENTITY ns_graphs "http://ns.adobe.com/Graphs/1.0/">
	<!ENTITY ns_vars "http://ns.adobe.com/Variables/1.0/">
	<!ENTITY ns_imrep "http://ns.adobe.com/ImageReplacement/1.0/">
	<!ENTITY ns_sfw "http://ns.adobe.com/SaveForWeb/1.0/">
	<!ENTITY ns_custom "http://ns.adobe.com/GenericCustomNamespace/1.0/">
	<!ENTITY ns_adobe_xpath "http://ns.adobe.com/XPath/1.0/">
]>
<svg version="1.1" id="Layer_1" xmlns:x="&ns_extend;" xmlns:i="&ns_ai;" xmlns:graph="&ns_graphs;"
	 xmlns="http://www.w3.org/2000/svg" xmlns:xlink="http://www.w3.org/1999/xlink" x="0px" y="0px" viewBox="0 314.4 612 163.1"
	 enable-background="new 0 314.4 612 163.1" xml:space="preserve">
<metadata>
	<sfw  xmlns="&ns_sfw;">
		<slices></slices>
		<sliceSourceBounds  width="612" height="163.1" y="314.4" x="0" bottomLeftOrigin="true"></sliceSourceBounds>
	</sfw>
</metadata>
<g>
	<polygon fill="#2AAFE5" points="551.4,477.6 612,416.9 612,314.4 322.3,314.4 322.3,477.6 	"/>
	<path fill="#FFFFFF" d="M540.7,403.3c-2.7-1.3-2.3-4.7,0.3-6.8c2.6-2.1,6.2-2.9,9-2.3c2.5,0.5,4.6,3,2.3,5.9
		C549.6,403.8,544.1,404.9,540.7,403.3 M524.2,384.5c3.3-2,9.3,0.5,12,4.5c2.8,4.1,3,8.1,0.8,10.7c-1.9,2.1-7.1,2.9-11.5-1.3
		C520.1,393.3,520.1,387,524.2,384.5 M529.9,364.8c1.5,3.2-0.7,10.9-4,15.5c-3.3,4.8-6.7,6.3-8.6,4.8c-1.7-1.4-2.1-7.2,1.3-13.7
		C522.9,363.2,528,360.9,529.9,364.8 M541.2,356.9c0.1,1.1-3.1,3.2-6.3,4.2c-3.2,1.1-5.6,1.3-6.4,0.7c-0.7-0.5,0.5-2.3,4.2-4
		C537.4,355.9,541.1,355.7,541.2,356.9 M551.2,356.9c-0.2,0.7-2.6,1.1-4.8,1.1c-2.2-0.1-3.8-0.6-4.1-1.1c-0.3-0.5,0.9-1.3,3.5-1.4
		C549.1,355.3,551.4,356.1,551.2,356.9"/>
	<path fill="#FFFFFF" d="M567.2,397c2.3-0.1,2.6,3.3,0.9,6.3s-4.1,5.5-6.3,6.2c-1.9,0.6-4-0.6-2.8-4.2
		C560.4,400.8,564.4,397.1,567.2,397 M557.6,409.4c1.3,0.5,0.3,2.3-1.7,3.5c-2,1.2-4.3,1.9-5.9,1.7c-1.3-0.2-2-1.3,0-2.9
		C552.5,409.6,556,408.7,557.6,409.4 M547.6,413.4c0.8,0.6-0.4,1.4-2,1.7c-1.8,0.3-3.5,0.1-4.6-0.4c-0.9-0.4-1.2-1.2,0.6-1.7
		C543.8,412.4,546.6,412.7,547.6,413.4 M557.5,376.4c2.5-3.7,7.7-2.3,10.5,1.9c2.9,4.3,3.6,9.6,2.2,13.6c-1.2,3.3-5.4,6-9.6,2
		C555.5,389.1,554.5,380.8,557.5,376.4 M536.6,380.7c-3.4-3.8-1.9-9.6,2.1-12c4.1-2.5,9.3-2,13,0.6c3.2,2.2,5.6,7.8,1.7,11.8
		C548.6,386.2,540.7,385.3,536.6,380.7"/>
	<path fill="#FFFFFF" d="M377,437.5c-8.6,0-13.7-5.6-13.7-9.7c0-2.4,1.8-3.8,4.1-3.8c2,0,3.4,1.1,4.1,2.7c0.8,2.1,2.6,5,5.9,5
		c3.1,0,4.9-2.1,4.9-4.8c0-8.8-18.2-6.8-18.2-19.5c0-7,5.7-11.1,13.4-11.1c8.9,0,12.7,5.3,12.7,8.3c0,2.4-1.7,3.7-3.9,3.7
		c-1.9,0-3.1-1.1-3.8-2.6c-0.9-1.9-2.2-4.1-5.1-4.1c-2.8,0-4.8,1.8-4.8,4.8c0,8,18.7,5.8,18.7,19.6C391.1,432.6,386,437.5,377,437.5
		 M531.6,436.6h-6c-0.8,0-1.1-0.4-1.1-1.1v-19.6c0-2.4-1.1-4.6-4.7-4.6c-3.6,0-4.1,1.7-4.1,3.4v20.7c0,0.8-0.4,1.1-1.1,1.1h-5.9
		c-0.8,0-1.1-0.4-1.1-1.1v-23.2c0-1.9,0.5-2.7,2.3-3.6c2-1,6-1.7,10.3-1.7c7,0,12.7,2.3,12.7,8.5v19.9
		C532.7,436.1,532.3,436.6,531.6,436.6 M499.5,436.6h-6c-0.8,0-1.1-0.4-1.1-1.1v-19.6c0-2.4-1.1-4.6-4.7-4.6c-3.6,0-4.1,1.7-4.1,3.4
		v20.7c0,0.8-0.4,1.1-1.1,1.1h-5.9c-0.8,0-1.1-0.4-1.1-1.1v-23.2c0-1.9,0.5-2.7,2.3-3.6c2-1,6-1.7,10.3-1.7c7,0,12.7,2.3,12.7,8.5
		v19.9C500.5,436.1,500.3,436.6,499.5,436.6 M467.2,436.6h-5.9c-0.8,0-1.1-0.4-1.1-1.1v-26.5c0-0.8,0.4-1.1,1.1-1.1h5.9
		c0.8,0,1.1,0.4,1.1,1.1v26.5C468.4,436.1,468,436.6,467.2,436.6 M464.3,403.7c-2.7,0-4.5-1.6-4.5-3.5s1.8-3.4,4.5-3.4
		c2.7,0,4.5,1.5,4.5,3.4C468.8,402.1,467,403.7,464.3,403.7 M452.1,436.6h-5.9c-0.8,0-1.1-0.4-1.1-1.1v-19.6c0-2.9-1.4-4.6-4.1-4.6
		c-2.9,0-4.1,1.8-4.1,4.5v19.6c0,0.8-0.4,1.1-1.1,1.1h-5.9c-0.8,0-1.1-0.4-1.1-1.1v-19.6c0-2.9-1.4-4.6-4.1-4.6
		c-2.7,0-4.1,1.1-4.1,3.5v20.6c0,0.8-0.4,1.1-1.1,1.1h-5.8c-0.8,0-1.1-0.4-1.1-1.1v-23.2c0-2,0.5-2.8,2.3-3.6
		c1.9-0.9,5.6-1.7,9.4-1.7c4.5,0,7.2,1.3,9.1,3.2c2-1.9,5.2-3.2,10-3.2c4.7,0,10.1,2.3,10.1,8.5v19.9
		C453.3,436.1,452.9,436.6,452.1,436.6 M408.5,397.9l-6,5.6c-0.5,0.4-1,0.8-1.6,0.8h-2.4c-0.4,0-0.8-0.3-0.8-0.8
		c0-0.3,0.1-0.4,0.4-0.8l3.3-5.3c0.7-1.1,2.6-1.8,4.7-1.8c1.8,0,2.9,0.6,2.9,1.3C408.9,397.3,408.7,397.6,408.5,397.9 M404.2,436.6
		h-5.9c-0.8,0-1.1-0.4-1.1-1.1v-26.5c0-0.8,0.4-1.1,1.1-1.1h5.9c0.8,0,1.1,0.4,1.1,1.1v26.5C405.4,436.1,405,436.6,404.2,436.6"/>
	<polygon fill="#1ED760" points="322.3,477.6 322.3,416.9 322.3,314.4 0,314.4 0,477.6 	"/>
	<path fill="#FFFFFF" d="M72.2,374.5c-21.1,0-38.2,17.1-38.2,38.2c0,21.1,17.1,38.2,38.2,38.2s38.2-17.1,38.2-38.2
		C110.2,391.5,93.2,374.5,72.2,374.5"/>
	<path fill="#1ED760" d="M93.3,415c-11.8-7.2-29-9.3-42.8-5c-1.6,0.4-2.5,2.1-1.9,3.7c0.4,1.6,2.1,2.5,3.7,1.9
		c12.2-3.7,27.8-1.9,38,4.4c1.4,0.9,3.3,0.4,4.1-1C95.2,417.6,94.7,415.8,93.3,415"/>
	<path fill="#1ED760" d="M98.3,402.1c-14.2-8.5-36.6-9.3-50.1-5.1c-1.9,0.5-2.9,2.6-2.4,4.4c0.5,1.9,2.6,2.9,4.4,2.4
		c11.7-3.5,32-2.9,44.3,4.4c1.7,1,3.9,0.4,4.8-1.2C100.5,405.3,100,403.1,98.3,402.1"/>
	<path fill="#1ED760" d="M88.8,426.2c-10-6.2-22.5-7.6-37-4.2c-1.3,0.3-2.1,1.6-1.8,2.8c0.3,1.3,1.6,2.1,2.8,1.8
		c13.3-3,24.6-1.8,33.5,3.7c1.1,0.7,2.6,0.4,3.3-0.8C90.3,428.3,90,426.8,88.8,426.2"/>
	<path fill="#FFFFFF" d="M137.7,409.6c-6.6-1.6-7.8-2.6-7.8-5c0-2.2,2-3.7,5.1-3.7c3,0,5.9,1.1,9,3.4c0.1,0.1,0.2,0.1,0.4,0.1
		c0.1,0,0.2-0.1,0.3-0.2l3.2-4.5c0.2-0.2,0.1-0.4-0.1-0.6c-3.7-2.9-7.8-4.4-12.6-4.4c-7.1,0-12.1,4.2-12.1,10.4
		c0,6.5,4.3,8.9,11.7,10.7c6.3,1.4,7.4,2.6,7.4,4.8c0,2.4-2.1,3.9-5.6,3.9c-3.9,0-7-1.3-10.5-4.3c-0.1-0.1-0.2-0.1-0.4-0.1
		c-0.1,0-0.3,0.1-0.3,0.2l-3.6,4.3c-0.2,0.2-0.1,0.4,0,0.6c4.1,3.6,9.1,5.6,14.5,5.6c7.7,0,12.6-4.2,12.6-10.7
		C149,414.6,145.8,411.6,137.7,409.6"/>
	<path fill="#FFFFFF" d="M171.9,416.9c0,4.6-2.8,7.8-7,7.8c-4.1,0-7-3.3-7-7.8c0-4.5,3.1-7.8,7-7.8
		C169,409.1,171.9,412.4,171.9,416.9 M166.4,403.1c-3.3,0-6.1,1.3-8.3,4v-3c0-0.3-0.2-0.4-0.4-0.4h-5.9c-0.3,0-0.4,0.2-0.4,0.4v33.5
		c0,0.3,0.2,0.4,0.4,0.4h5.9c0.3,0,0.4-0.2,0.4-0.4V427c2.2,2.6,4.9,3.8,8.3,3.8c6.2,0,12.4-4.8,12.4-13.8
		C178.8,407.9,172.5,403.1,166.4,403.1"/>
	<path fill="#FFFFFF" d="M194.7,424.9c-4.2,0-7.4-3.4-7.4-7.9c0-4.5,3.1-7.8,7.3-7.8c4.2,0,7.5,3.4,7.5,7.9
		C202.1,421.6,199.1,424.9,194.7,424.9 M194.7,403.1c-7.9,0-14.2,6.1-14.2,13.9c0,7.8,6.2,13.7,14.1,13.7c7.9,0,14.2-6.1,14.2-13.8
		C208.9,409.2,202.7,403.1,194.7,403.1"/>
	<path fill="#FFFFFF" d="M225.9,403.6h-6.4V397c0-0.3-0.2-0.4-0.4-0.4h-5.9c-0.3,0-0.4,0.2-0.4,0.4v6.6h-2.8c-0.3,0-0.4,0.2-0.4,0.4
		v5c0,0.3,0.2,0.4,0.4,0.4h2.8v13.1c0,5.3,2.6,8,7.8,8c2.1,0,3.9-0.4,5.6-1.4c0.2-0.1,0.2-0.2,0.2-0.4v-4.8c0-0.2-0.1-0.3-0.2-0.4
		c-0.1-0.1-0.3-0.1-0.4,0c-1.1,0.5-2.2,0.8-3.4,0.8c-1.9,0-2.7-0.9-2.7-2.8v-12.1h6.5c0.3,0,0.4-0.2,0.4-0.4v-5
		C226.3,403.9,226.1,403.6,225.9,403.6"/>
	<path fill="#FFFFFF" d="M248.5,403.7v-0.8c0-2.4,0.9-3.4,3-3.4c1.2,0,2.2,0.3,3.3,0.6c0.2,0,0.3,0,0.4-0.1c0.1-0.1,0.2-0.2,0.2-0.4
		v-5c0-0.2-0.1-0.4-0.3-0.4c-1.1-0.4-2.6-0.7-4.9-0.7c-5.5,0-8.3,3.1-8.3,8.9v1.2h-2.8c-0.3,0-0.4,0.2-0.4,0.4v5.1
		c0,0.3,0.2,0.4,0.4,0.4h2.8v20.2c0,0.3,0.2,0.4,0.4,0.4h5.9c0.3,0,0.4-0.2,0.4-0.4v-20.2h5.5l8.5,20.2c-1,2.1-1.9,2.6-3.2,2.6
		c-1.1,0-2.1-0.4-3.3-0.9c-0.1-0.1-0.3-0.1-0.4,0c-0.1,0-0.2,0.1-0.3,0.3l-2,4.4c-0.1,0.2,0,0.4,0.2,0.5c2.1,1.1,4,1.6,6.3,1.6
		c4.3,0,6.8-2,8.9-7.5l10.2-26.4c0.1-0.2,0-0.3-0.1-0.4c-0.1-0.1-0.2-0.2-0.4-0.2h-6.2c-0.2,0-0.4,0.1-0.4,0.3l-6.3,18l-6.9-18
		c-0.1-0.2-0.3-0.3-0.4-0.3H248.5z"/>
	<path fill="#FFFFFF" d="M235.4,403.6h-5.9c-0.3,0-0.4,0.2-0.4,0.4v25.7c0,0.3,0.2,0.4,0.4,0.4h5.9c0.3,0,0.4-0.2,0.4-0.4v-25.7
		C235.8,403.9,235.6,403.6,235.4,403.6"/>
	<path fill="#FFFFFF" d="M232.5,392c-2.4,0-4.2,1.9-4.2,4.2s1.9,4.2,4.2,4.2c2.3,0,4.2-1.9,4.2-4.2C236.7,393.8,234.8,392,232.5,392
		"/>
	<path fill="#FFFFFF" d="M284.4,406.3h-1.1v1.4h1.1c0.5,0,0.9-0.3,0.9-0.7C285.2,406.4,284.9,406.3,284.4,406.3 M285.1,408.2
		l1.1,1.7h-1l-1.1-1.5h-0.9v1.5h-0.8v-4.3h1.9c1,0,1.7,0.5,1.7,1.4C286,407.6,285.6,408,285.1,408.2 M284.1,404.1
		c-2.1,0-3.7,1.7-3.7,3.8c0,2,1.6,3.7,3.7,3.7c2.1,0,3.7-1.7,3.7-3.8C287.8,405.7,286.2,404.1,284.1,404.1 M284.1,411.9
		c-2.3,0-4.1-1.9-4.1-4.1c0-2.3,1.9-4.1,4.1-4.1c2.3,0,4.1,1.9,4.1,4.1C288.2,410.1,286.4,411.9,284.1,411.9"/>
	<g>
		<path fill="#FFFFFF" d="M333.4,416.9H325v8.6c0,0.8-0.4,1.2-1.2,1.2h-3c-0.8,0-1.2-0.4-1.2-1.2v-8.6h-8.4c-0.8,0-1.2-0.4-1.2-1.2
			v-2.8c0-0.8,0.4-1.1,1.2-1.1h8.4v-8.5c0-0.8,0.4-1.2,1.2-1.2h3c0.8,0,1.2,0.4,1.2,1.2v8.5h8.4c0.8,0,1.2,0.4,1.2,1.1v2.8
			C334.5,416.6,334.2,416.9,333.4,416.9z"/>
	</g>
</g>
</svg>
